<?xml version="1.0" standalone="no"?>
<!DOCTYPE svg PUBLIC "-//W3C//DTD SVG 20010904//EN"
 "http://www.w3.org/TR/2001/REC-SVG-20010904/DTD/svg10.dtd">
<svg version="1.0" xmlns="http://www.w3.org/2000/svg"
 width="261.000000pt" height="261.000000pt" viewBox="0 0 261.000000 261.000000"
 preserveAspectRatio="xMidYMid meet">
<metadata>
Created by potrace 1.11, written by Peter Selinger 2001-2013
</metadata>
<g transform="translate(0.000000,261.000000) scale(0.100000,-0.100000)"
fill="#000000" stroke="none">
<path d="M0 1767 l0 -842 88 -95 c48 -51 73 -84 56 -71 -17 12 -55 51 -85 86
l-54 64 -3 -441 c-1 -317 1 -445 9 -454 10 -12 224 -14 1305 -14 l1294 0 0
1059 c0 1001 -1 1060 -17 1064 -17 4 -17 5 0 6 16 1 17 20 17 241 l0 240
-1305 0 -1305 0 0 -843z m1003 806 c-13 -2 -35 -2 -50 0 -16 2 -5 4 22 4 28 0
40 -2 28 -4z m1555 -460 c-10 -2 -26 -2 -35 0 -10 3 -2 5 17 5 19 0 27 -2 18
-5z m-355 -40 c-7 -2 -19 -2 -25 0 -7 3 -2 5 12 5 14 0 19 -2 13 -5z m-65 -10
c-10 -2 -26 -2 -35 0 -10 3 -2 5 17 5 19 0 27 -2 18 -5z m-85 -10 c-7 -2 -19
-2 -25 0 -7 3 -2 5 12 5 14 0 19 -2 13 -5z m-56 -9 c-3 -3 -12 -4 -19 -1 -8 3
-5 6 6 6 11 1 17 -2 13 -5z m-244 -41 c-7 -2 -19 -2 -25 0 -7 3 -2 5 12 5 14
0 19 -2 13 -5z m-114 -19 c-35 -10 -58 -27 -94 -69 -26 -30 -55 -59 -64 -65
-10 -5 12 22 48 60 65 68 97 89 136 89 11 0 -1 -7 -26 -15z m-670 -202 c-9 -4
-66 24 -73 36 -3 5 14 -1 38 -12 23 -12 39 -22 35 -24z m334 21 c-13 -2 -33
-2 -45 0 -13 2 -3 4 22 4 25 0 35 -2 23 -4z m-95 -10 c-10 -2 -28 -2 -40 0
-13 2 -5 4 17 4 22 1 32 -1 23 -4z m-105 -10 c-13 -2 -33 -2 -45 0 -13 2 -3 4
22 4 25 0 35 -2 23 -4z m-212 -220 c13 -16 12 -17 -3 -4 -10 7 -18 15 -18 17
0 8 8 3 21 -13z m59 -73 c6 -11 8 -20 6 -20 -3 0 -10 9 -16 20 -6 11 -8 20 -6
20 3 0 10 -9 16 -20z m1146 7 c78 -17 123 -156 60 -189 -11 -6 -24 -16 -28
-22 -4 -6 -32 -11 -63 -11 -48 1 -59 5 -82 29 -67 72 -6 220 82 200 11 -3 25
-6 31 -7z m-643 -84 c-7 -2 -19 -2 -25 0 -7 3 -2 5 12 5 14 0 19 -2 13 -5z
m-880 -108 c32 -20 57 -68 57 -106 0 -17 -12 -42 -30 -63 -29 -33 -34 -35 -90
-33 -49 2 -62 6 -83 28 -92 100 33 248 146 174z m905 -172 c-10 -2 -26 -2 -35
0 -10 3 -2 5 17 5 19 0 27 -2 18 -5z m-90 -10 c-10 -2 -28 -2 -40 0 -13 2 -5
4 17 4 22 1 32 -1 23 -4z m-105 -10 c-7 -2 -19 -2 -25 0 -7 3 -2 5 12 5 14 0
19 -2 13 -5z m1247 -365 c-11 -29 -20 -54 -20 -54 0 -8 -63 -25 -77 -21 -12 3
-8 5 10 6 27 1 77 40 77 60 0 15 19 61 25 61 3 0 -4 -24 -15 -52z m-2040 -28
c8 -5 11 -10 5 -10 -5 0 -17 5 -25 10 -8 5 -10 10 -5 10 6 0 17 -5 25 -10z
m83 -45 c25 -19 56 -35 69 -36 23 -1 23 -1 -2 -8 -14 -4 -27 -3 -28 1 -2 5
-27 24 -55 43 -29 19 -47 35 -41 35 6 0 32 -16 57 -35z m1750 -22 c-7 -2 -21
-2 -30 0 -10 3 -4 5 12 5 17 0 24 -2 18 -5z m-95 -10 c-10 -2 -28 -2 -40 0
-13 2 -5 4 17 4 22 1 32 -1 23 -4z m-1921 -17 c-30 -23 -82 -28 -119 -12 l-33
14 50 -5 c28 -3 61 0 75 6 35 14 48 13 27 -3z m1826 7 c-13 -2 -35 -2 -50 0
-16 2 -5 4 22 4 28 0 40 -2 28 -4z m-105 -10 c-16 -2 -40 -2 -55 0 -16 2 -3 4
27 4 30 0 43 -2 28 -4z m-105 -10 c-13 -2 -33 -2 -45 0 -13 2 -3 4 22 4 25 0
35 -2 23 -4z m-1739 -32 c-2 -3 -12 3 -22 13 -16 17 -16 18 5 5 12 -7 20 -15
17 -18z m2129 12 c-7 -2 -19 -2 -25 0 -7 3 -2 5 12 5 14 0 19 -2 13 -5z m-635
-10 c-10 -2 -26 -2 -35 0 -10 3 -2 5 17 5 19 0 27 -2 18 -5z m-1431 -9 c-3 -3
-12 -4 -19 -1 -8 3 -5 6 6 6 11 1 17 -2 13 -5z m1336 -1 c-13 -2 -33 -2 -45 0
-13 2 -3 4 22 4 25 0 35 -2 23 -4z m-100 -10 c-13 -2 -35 -2 -50 0 -16 2 -5 4
22 4 28 0 40 -2 28 -4z m-100 -10 c-13 -2 -35 -2 -50 0 -16 2 -5 4 22 4 28 0
40 -2 28 -4z m-110 -10 c-13 -2 -33 -2 -45 0 -13 2 -3 4 22 4 25 0 35 -2 23
-4z m527 -8 c-58 -7 -125 -13 -150 -13 -25 1 2 6 60 13 58 7 125 12 150 12 25
0 -2 -5 -60 -12z m-677 -12 c-7 -2 -19 -2 -25 0 -7 3 -2 5 12 5 14 0 19 -2 13
-5z m-85 -10 c-10 -2 -28 -2 -40 0 -13 2 -5 4 17 4 22 1 32 -1 23 -4z m540 0
c-10 -2 -28 -2 -40 0 -13 2 -5 4 17 4 22 1 32 -1 23 -4z m-653 -10 c-103 -15
-172 -18 -169 -8 3 6 44 10 102 11 53 1 84 -1 67 -3z m548 0 c-7 -2 -21 -2
-30 0 -10 3 -4 5 12 5 17 0 24 -2 18 -5z m-60 -10 c-7 -2 -19 -2 -25 0 -7 3
-2 5 12 5 14 0 19 -2 13 -5z m-60 -10 c-7 -2 -21 -2 -30 0 -10 3 -4 5 12 5 17
0 24 -2 18 -5z m-866 -59 c32 -21 45 -24 88 -20 l50 5 -42 -11 c-51 -13 -83
-6 -120 27 -37 32 -24 32 24 -1z m1140 20 c-3 -3 -12 -4 -19 -1 -8 3 -5 6 6 6
11 1 17 -2 13 -5z m-84 -11 c-7 -2 -21 -2 -30 0 -10 3 -4 5 12 5 17 0 24 -2
18 -5z m-96 -9 c-3 -3 -12 -4 -19 -1 -8 3 -5 6 6 6 11 1 17 -2 13 -5z m-957
-47 c12 -4 12 -6 -2 -6 -9 -1 -30 11 -45 25 l-28 26 30 -20 c17 -10 37 -22 45
-25z m78 -14 c-10 -2 -28 -2 -40 0 -13 2 -5 4 17 4 22 1 32 -1 23 -4z"/>
</g>
</svg>
